<svg xmlns="http://www.w3.org/2000/svg" viewBox="0 0 88 76" width="88" height="76" role="img" aria-label="spinning coin"><g opacity="1"><rect x="64" y="38" width="5" height="5" fill="#b8860b"/><rect x="19" y="23" width="5" height="5" fill="#3a2700"/><rect x="69" y="43" width="5" height="5" fill="#3a2700"/><rect x="44" y="18" width="5" height="5" fill="#f9c80e"/><rect x="44" y="63" width="5" height="5" fill="#f9c80e"/><rect x="54" y="48" width="5" height="5" fill="#b8860b"/><rect x="24" y="43" width="5" height="5" fill="#ffe66d"/><rect x="34" y="28" width="5" height="5" fill="#ffe66d"/><rect x="39" y="28" width="5" height="5" fill="#f9c80e"/><rect x="34" y="33" width="5" height="5" fill="#ffe66d"/><rect x="39" y="33" width="5" height="5" fill="#f9c80e"/><rect x="64" y="48" width="5" height="5" fill="#b8860b"/><rect x="69" y="53" width="5" height="5" fill="#3a2700"/><rect x="44" y="28" width="5" height="5" fill="#f9c80e"/><rect x="54" y="13" width="5" height="5" fill="#3a2700"/><rect x="44" y="33" width="5" height="5" fill="#f9c80e"/><rect x="54" y="58" width="5" height="5" fill="#b8860b"/><rect x="24" y="53" width="5" height="5" fill="#f9c80e"/><rect x="34" y="38" width="5" height="5" fill="#ffe66d"/><rect x="39" y="38" width="5" height="5" fill="#f9c80e"/><rect x="29" y="43" width="5" height="5" fill="#ffe66d"/><rect x="44" y="38" width="5" height="5" fill="#f9c80e"/><rect x="54" y="23" width="5" height="5" fill="#f9c80e"/><rect x="24" y="18" width="5" height="5" fill="#3a2700"/><rect x="34" y="48" width="5" height="5" fill="#f9c80e"/><rect x="39" y="48" width="5" height="5" fill="#f9c80e"/><rect x="59" y="43" width="5" height="5" fill="#b8860b"/><rect x="69" y="28" width="5" height="5" fill="#3a2700"/><rect x="69" y="33" width="5" height="5" fill="#3a2700"/><rect x="29" y="53" width="5" height="5" fill="#f9c80e"/><rect x="44" y="48" width="5" height="5" fill="#f9c80e"/><rect x="49" y="53" width="5" height="5" fill="#f9c80e"/><rect x="24" y="28" width="5" height="5" fill="#ffe66d"/><rect x="39" y="13" width="5" height="5" fill="#3a2700"/><rect x="34" y="13" width="5" height="5" fill="#3a2700"/><rect x="24" y="33" width="5" height="5" fill="#ffe66d"/><rect x="34" y="58" width="5" height="5" fill="#f9c80e"/><rect x="39" y="58" width="5" height="5" fill="#f9c80e"/><rect x="59" y="53" width="5" height="5" fill="#b8860b"/><rect x="14" y="38" width="5" height="5" fill="#3a2700"/><rect x="69" y="38" width="5" height="5" fill="#b8860b"/><rect x="29" y="18" width="5" height="5" fill="#ffe66d"/><rect x="44" y="13" width="5" height="5" fill="#f9c80e"/><rect x="29" y="63" width="5" height="5" fill="#3a2700"/><rect x="49" y="18" width="5" height="5" fill="#f9c80e"/><rect x="49" y="63" width="5" height="5" fill="#3a2700"/><rect x="24" y="38" width="5" height="5" fill="#ffe66d"/><rect x="34" y="23" width="5" height="5" fill="#ffe66d"/><rect x="39" y="23" width="5" height="5" fill="#f9c80e"/><rect x="59" y="18" width="5" height="5" fill="#f9c80e"/><rect x="59" y="63" width="5" height="5" fill="#3a2700"/><rect x="69" y="48" width="5" height="5" fill="#3a2700"/><rect x="64" y="58" width="5" height="5" fill="#3a2700"/><rect x="19" y="43" width="5" height="5" fill="#3a2700"/><rect x="29" y="28" width="5" height="5" fill="#ffe66d"/><rect x="44" y="23" width="5" height="5" fill="#f9c80e"/><rect x="29" y="33" width="5" height="5" fill="#ffe66d"/><rect x="49" y="28" width="5" height="5" fill="#f9c80e"/><rect x="49" y="33" width="5" height="5" fill="#f9c80e"/><rect x="24" y="48" width="5" height="5" fill="#f9c80e"/><rect x="59" y="28" width="5" height="5" fill="#f9c80e"/><rect x="59" y="33" width="5" height="5" fill="#b8860b"/><rect x="64" y="23" width="5" height="5" fill="#f9c80e"/><rect x="19" y="53" width="5" height="5" fill="#3a2700"/><rect x="29" y="38" width="5" height="5" fill="#ffe66d"/><rect x="49" y="38" width="5" height="5" fill="#f9c80e"/><rect x="24" y="58" width="5" height="5" fill="#3a2700"/><rect x="59" y="38" width="5" height="5" fill="#b8860b"/><rect x="69" y="23" width="5" height="5" fill="#3a2700"/><rect x="29" y="48" width="5" height="5" fill="#f9c80e"/><rect x="49" y="48" width="5" height="5" fill="#f9c80e"/><rect x="44" y="58" width="5" height="5" fill="#f9c80e"/><rect x="54" y="43" width="5" height="5" fill="#b8860b"/><rect x="24" y="23" width="5" height="5" fill="#ffe66d"/><rect x="39" y="63" width="5" height="5" fill="#3a2700"/><rect x="59" y="48" width="5" height="5" fill="#b8860b"/><rect x="64" y="43" width="5" height="5" fill="#b8860b"/><rect x="19" y="28" width="5" height="5" fill="#3a2700"/><rect x="29" y="13" width="5" height="5" fill="#3a2700"/><rect x="19" y="33" width="5" height="5" fill="#3a2700"/><rect x="29" y="58" width="5" height="5" fill="#f9c80e"/><rect x="49" y="13" width="5" height="5" fill="#3a2700"/><rect x="49" y="58" width="5" height="5" fill="#f9c80e"/><rect x="44" y="68" width="5" height="5" fill="#3a2700"/><rect x="54" y="53" width="5" height="5" fill="#b8860b"/><rect x="39" y="18" width="5" height="5" fill="#f9c80e"/><rect x="59" y="13" width="5" height="5" fill="#3a2700"/><rect x="59" y="58" width="5" height="5" fill="#b8860b"/><rect x="64" y="53" width="5" height="5" fill="#b8860b"/><rect x="19" y="38" width="5" height="5" fill="#ffe66d"/><rect x="29" y="23" width="5" height="5" fill="#ffe66d"/><rect x="49" y="23" width="5" height="5" fill="#f9c80e"/><rect x="54" y="18" width="5" height="5" fill="#f9c80e"/><rect x="54" y="63" width="5" height="5" fill="#3a2700"/><rect x="34" y="43" width="5" height="5" fill="#ffe66d"/><rect x="39" y="43" width="5" height="5" fill="#f9c80e"/><rect x="59" y="23" width="5" height="5" fill="#f9c80e"/><rect x="64" y="18" width="5" height="5" fill="#3a2700"/><rect x="19" y="48" width="5" height="5" fill="#3a2700"/><rect x="44" y="43" width="5" height="5" fill="#f9c80e"/><rect x="54" y="28" width="5" height="5" fill="#f9c80e"/><rect x="54" y="33" width="5" height="5" fill="#b8860b"/><rect x="34" y="53" width="5" height="5" fill="#f9c80e"/><rect x="39" y="53" width="5" height="5" fill="#f9c80e"/><rect x="64" y="28" width="5" height="5" fill="#f9c80e"/><rect x="64" y="33" width="5" height="5" fill="#b8860b"/><rect x="44" y="8" width="5" height="5" fill="#3a2700"/><rect x="49" y="43" width="5" height="5" fill="#f9c80e"/><rect x="44" y="53" width="5" height="5" fill="#f9c80e"/><rect x="54" y="38" width="5" height="5" fill="#b8860b"/><rect x="74" y="38" width="5" height="5" fill="#3a2700"/><rect x="34" y="18" width="5" height="5" fill="#ffe66d"/><rect x="34" y="63" width="5" height="5" fill="#3a2700"/><animate attributeName="opacity" values="1;0;0;0;0" keyTimes="0.000;0.250;0.500;0.750;1.000" dur="0.52s" calcMode="discrete" repeatCount="indefinite"/></g><g opacity="0"><rect x="59" y="28" width="5" height="5" fill="#3a2700"/><rect x="59" y="33" width="5" height="5" fill="#3a2700"/><rect x="59" y="43" width="5" height="5" fill="#3a2700"/><rect x="29" y="23" width="5" height="5" fill="#3a2700"/><rect x="29" y="38" width="5" height="5" fill="#3a2700"/><rect x="44" y="18" width="5" height="5" fill="#f9c80e"/><rect x="44" y="48" width="5" height="5" fill="#f9c80e"/><rect x="29" y="53" width="5" height="5" fill="#3a2700"/><rect x="49" y="23" width="5" height="5" fill="#f9c80e"/><rect x="54" y="18" width="5" height="5" fill="#3a2700"/><rect x="54" y="48" width="5" height="5" fill="#b8860b"/><rect x="49" y="38" width="5" height="5" fill="#b8860b"/><rect x="44" y="63" width="5" height="5" fill="#f9c80e"/><rect x="54" y="63" width="5" height="5" fill="#3a2700"/><rect x="49" y="53" width="5" height="5" fill="#b8860b"/><rect x="34" y="13" width="5" height="5" fill="#3a2700"/><rect x="39" y="13" width="5" height="5" fill="#3a2700"/><rect x="34" y="28" width="5" height="5" fill="#ffe66d"/><rect x="39" y="28" width="5" height="5" fill="#ffe66d"/><rect x="34" y="33" width="5" height="5" fill="#ffe66d"/><rect x="39" y="33" width="5" height="5" fill="#ffe66d"/><rect x="34" y="43" width="5" height="5" fill="#ffe66d"/><rect x="39" y="43" width="5" height="5" fill="#ffe66d"/><rect x="59" y="23" width="5" height="5" fill="#3a2700"/><rect x="34" y="58" width="5" height="5" fill="#3a2700"/><rect x="39" y="58" width="5" height="5" fill="#f9c80e"/><rect x="59" y="38" width="5" height="5" fill="#3a2700"/><rect x="59" y="53" width="5" height="5" fill="#3a2700"/><rect x="44" y="13" width="5" height="5" fill="#f9c80e"/><rect x="29" y="48" width="5" height="5" fill="#3a2700"/><rect x="44" y="28" width="5" height="5" fill="#f9c80e"/><rect x="54" y="13" width="5" height="5" fill="#3a2700"/><rect x="44" y="33" width="5" height="5" fill="#f9c80e"/><rect x="44" y="43" width="5" height="5" fill="#f9c80e"/><rect x="54" y="28" width="5" height="5" fill="#f9c80e"/><rect x="49" y="18" width="5" height="5" fill="#f9c80e"/><rect x="54" y="33" width="5" height="5" fill="#b8860b"/><rect x="49" y="48" width="5" height="5" fill="#b8860b"/><rect x="54" y="43" width="5" height="5" fill="#b8860b"/><rect x="44" y="58" width="5" height="5" fill="#f9c80e"/><rect x="54" y="58" width="5" height="5" fill="#3a2700"/><rect x="49" y="63" width="5" height="5" fill="#3a2700"/><rect x="39" y="63" width="5" height="5" fill="#3a2700"/><rect x="34" y="23" width="5" height="5" fill="#ffe66d"/><rect x="39" y="23" width="5" height="5" fill="#ffe66d"/><rect x="34" y="38" width="5" height="5" fill="#ffe66d"/><rect x="39" y="38" width="5" height="5" fill="#ffe66d"/><rect x="34" y="53" width="5" height="5" fill="#f9c80e"/><rect x="39" y="53" width="5" height="5" fill="#f9c80e"/><rect x="59" y="48" width="5" height="5" fill="#3a2700"/><rect x="39" y="48" width="5" height="5" fill="#f9c80e"/><rect x="29" y="28" width="5" height="5" fill="#3a2700"/><rect x="44" y="23" width="5" height="5" fill="#f9c80e"/><rect x="29" y="33" width="5" height="5" fill="#3a2700"/><rect x="44" y="8" width="5" height="5" fill="#3a2700"/><rect x="44" y="38" width="5" height="5" fill="#f9c80e"/><rect x="54" y="23" width="5" height="5" fill="#f9c80e"/><rect x="49" y="13" width="5" height="5" fill="#3a2700"/><rect x="29" y="43" width="5" height="5" fill="#3a2700"/><rect x="49" y="43" width="5" height="5" fill="#b8860b"/><rect x="54" y="38" width="5" height="5" fill="#b8860b"/><rect x="49" y="28" width="5" height="5" fill="#f9c80e"/><rect x="49" y="33" width="5" height="5" fill="#b8860b"/><rect x="44" y="53" width="5" height="5" fill="#f9c80e"/><rect x="54" y="53" width="5" height="5" fill="#b8860b"/><rect x="49" y="58" width="5" height="5" fill="#b8860b"/><rect x="34" y="18" width="5" height="5" fill="#3a2700"/><rect x="44" y="68" width="5" height="5" fill="#3a2700"/><rect x="39" y="18" width="5" height="5" fill="#ffe66d"/><rect x="34" y="48" width="5" height="5" fill="#f9c80e"/><rect x="34" y="63" width="5" height="5" fill="#3a2700"/><animate attributeName="opacity" values="0;1;0;0;0" keyTimes="0.000;0.250;0.500;0.750;1.000" dur="0.52s" calcMode="discrete" repeatCount="indefinite"/></g><g opacity="0"><rect x="44" y="18" width="5" height="5" fill="#3a2700"/><rect x="44" y="48" width="5" height="5" fill="#7a5200"/><rect x="49" y="23" width="5" height="5" fill="#3a2700"/><rect x="44" y="63" width="5" height="5" fill="#3a2700"/><rect x="49" y="38" width="5" height="5" fill="#3a2700"/><rect x="49" y="53" width="5" height="5" fill="#3a2700"/><rect x="39" y="28" width="5" height="5" fill="#3a2700"/><rect x="39" y="33" width="5" height="5" fill="#3a2700"/><rect x="39" y="43" width="5" height="5" fill="#3a2700"/><rect x="44" y="13" width="5" height="5" fill="#3a2700"/><rect x="44" y="33" width="5" height="5" fill="#7a5200"/><rect x="44" y="28" width="5" height="5" fill="#7a5200"/><rect x="44" y="43" width="5" height="5" fill="#7a5200"/><rect x="49" y="48" width="5" height="5" fill="#3a2700"/><rect x="44" y="58" width="5" height="5" fill="#3a2700"/><rect x="39" y="23" width="5" height="5" fill="#3a2700"/><rect x="39" y="38" width="5" height="5" fill="#3a2700"/><rect x="39" y="53" width="5" height="5" fill="#3a2700"/><rect x="44" y="23" width="5" height="5" fill="#7a5200"/><rect x="44" y="8" width="5" height="5" fill="#3a2700"/><rect x="44" y="38" width="5" height="5" fill="#7a5200"/><rect x="49" y="43" width="5" height="5" fill="#3a2700"/><rect x="44" y="53" width="5" height="5" fill="#7a5200"/><rect x="49" y="28" width="5" height="5" fill="#3a2700"/><rect x="49" y="33" width="5" height="5" fill="#3a2700"/><rect x="44" y="68" width="5" height="5" fill="#3a2700"/><rect x="39" y="48" width="5" height="5" fill="#3a2700"/><animate attributeName="opacity" values="0;0;1;0;0" keyTimes="0.000;0.250;0.500;0.750;1.000" dur="0.52s" calcMode="discrete" repeatCount="indefinite"/></g><g opacity="0"><rect x="59" y="28" width="5" height="5" fill="#3a2700"/><rect x="59" y="33" width="5" height="5" fill="#3a2700"/><rect x="59" y="43" width="5" height="5" fill="#3a2700"/><rect x="29" y="23" width="5" height="5" fill="#3a2700"/><rect x="29" y="38" width="5" height="5" fill="#3a2700"/><rect x="44" y="18" width="5" height="5" fill="#f9c80e"/><rect x="44" y="48" width="5" height="5" fill="#f9c80e"/><rect x="29" y="53" width="5" height="5" fill="#3a2700"/><rect x="49" y="23" width="5" height="5" fill="#f9c80e"/><rect x="54" y="18" width="5" height="5" fill="#3a2700"/><rect x="54" y="48" width="5" height="5" fill="#b8860b"/><rect x="49" y="38" width="5" height="5" fill="#b8860b"/><rect x="44" y="63" width="5" height="5" fill="#f9c80e"/><rect x="54" y="63" width="5" height="5" fill="#3a2700"/><rect x="49" y="53" width="5" height="5" fill="#b8860b"/><rect x="34" y="13" width="5" height="5" fill="#3a2700"/><rect x="39" y="13" width="5" height="5" fill="#3a2700"/><rect x="34" y="28" width="5" height="5" fill="#ffe66d"/><rect x="39" y="28" width="5" height="5" fill="#ffe66d"/><rect x="34" y="33" width="5" height="5" fill="#ffe66d"/><rect x="39" y="33" width="5" height="5" fill="#ffe66d"/><rect x="34" y="43" width="5" height="5" fill="#ffe66d"/><rect x="39" y="43" width="5" height="5" fill="#ffe66d"/><rect x="59" y="23" width="5" height="5" fill="#3a2700"/><rect x="34" y="58" width="5" height="5" fill="#3a2700"/><rect x="39" y="58" width="5" height="5" fill="#f9c80e"/><rect x="59" y="38" width="5" height="5" fill="#3a2700"/><rect x="59" y="53" width="5" height="5" fill="#3a2700"/><rect x="44" y="13" width="5" height="5" fill="#f9c80e"/><rect x="29" y="48" width="5" height="5" fill="#3a2700"/><rect x="44" y="28" width="5" height="5" fill="#f9c80e"/><rect x="54" y="13" width="5" height="5" fill="#3a2700"/><rect x="44" y="33" width="5" height="5" fill="#f9c80e"/><rect x="44" y="43" width="5" height="5" fill="#f9c80e"/><rect x="54" y="28" width="5" height="5" fill="#f9c80e"/><rect x="49" y="18" width="5" height="5" fill="#f9c80e"/><rect x="54" y="33" width="5" height="5" fill="#b8860b"/><rect x="49" y="48" width="5" height="5" fill="#b8860b"/><rect x="54" y="43" width="5" height="5" fill="#b8860b"/><rect x="44" y="58" width="5" height="5" fill="#f9c80e"/><rect x="54" y="58" width="5" height="5" fill="#3a2700"/><rect x="49" y="63" width="5" height="5" fill="#3a2700"/><rect x="39" y="63" width="5" height="5" fill="#3a2700"/><rect x="34" y="23" width="5" height="5" fill="#ffe66d"/><rect x="39" y="23" width="5" height="5" fill="#ffe66d"/><rect x="34" y="38" width="5" height="5" fill="#ffe66d"/><rect x="39" y="38" width="5" height="5" fill="#ffe66d"/><rect x="34" y="53" width="5" height="5" fill="#f9c80e"/><rect x="39" y="53" width="5" height="5" fill="#f9c80e"/><rect x="59" y="48" width="5" height="5" fill="#3a2700"/><rect x="39" y="48" width="5" height="5" fill="#f9c80e"/><rect x="29" y="28" width="5" height="5" fill="#3a2700"/><rect x="44" y="23" width="5" height="5" fill="#f9c80e"/><rect x="29" y="33" width="5" height="5" fill="#3a2700"/><rect x="44" y="8" width="5" height="5" fill="#3a2700"/><rect x="44" y="38" width="5" height="5" fill="#f9c80e"/><rect x="54" y="23" width="5" height="5" fill="#f9c80e"/><rect x="49" y="13" width="5" height="5" fill="#3a2700"/><rect x="29" y="43" width="5" height="5" fill="#3a2700"/><rect x="49" y="43" width="5" height="5" fill="#b8860b"/><rect x="54" y="38" width="5" height="5" fill="#b8860b"/><rect x="49" y="28" width="5" height="5" fill="#f9c80e"/><rect x="49" y="33" width="5" height="5" fill="#b8860b"/><rect x="44" y="53" width="5" height="5" fill="#f9c80e"/><rect x="54" y="53" width="5" height="5" fill="#b8860b"/><rect x="49" y="58" width="5" height="5" fill="#b8860b"/><rect x="34" y="18" width="5" height="5" fill="#3a2700"/><rect x="44" y="68" width="5" height="5" fill="#3a2700"/><rect x="39" y="18" width="5" height="5" fill="#ffe66d"/><rect x="34" y="48" width="5" height="5" fill="#f9c80e"/><rect x="34" y="63" width="5" height="5" fill="#3a2700"/><animate attributeName="opacity" values="0;0;0;1;1" keyTimes="0.000;0.250;0.500;0.750;1.000" dur="0.52s" calcMode="discrete" repeatCount="indefinite"/></g></svg>
